<svg width="600" height="600" viewBox="0 0 600 600" fill="none" xmlns="http://www.w3.org/2000/svg">
<path d="M150 182C150 164.327 164.327 150 182 150H268C285.673 150 300 164.327 300 182V268C300 285.673 285.673 300 268 300H182C164.327 300 150 285.673 150 268V182Z" fill="#0C0032"/>
<rect x="150" y="150" width="150" height="150" rx="32" fill="white"/>
<rect x="150" y="450" width="150" height="150" rx="32" fill="white"/>
<rect x="150" width="150" height="150" rx="32" fill="white" fill-opacity="0.22"/>
<rect x="150" width="150" height="150" rx="32" fill="white" fill-opacity="0.44"/>
<rect y="300" width="150" height="150" rx="32" fill="white" fill-opacity="0.32"/>
<rect y="300" width="150" height="150" rx="32" fill="white" fill-opacity="0.44"/>
<rect x="450" y="150" width="150" height="150" rx="32" fill="#3500D3"/>
<rect x="300" y="300" width="150" height="150" rx="32" fill="#0C0032"/>
<circle cx="375" cy="225" r="75" fill="#190061"/>
<circle cx="225" cy="375" r="75" fill="#C3073F"/>
</svg>
